<?xml version="1.0" encoding="utf-8"?>
<!-- Generator: Adobe Illustrator 16.0.0, SVG Export Plug-In . SVG Version: 6.00 Build 0)  -->
<!DOCTYPE svg PUBLIC "-//W3C//DTD SVG 1.1//EN" "http://www.w3.org/Graphics/SVG/1.1/DTD/svg11.dtd">
<svg version="1.1" id="Layer_1" xmlns="http://www.w3.org/2000/svg" xmlns:xlink="http://www.w3.org/1999/xlink" x="0px" y="0px"
	 width="512px" height="512px" viewBox="0 0 512 512" enable-background="new 0 0 512 512" xml:space="preserve">
<g>
	<polygon points="196.323,105.022 196.304,29.326 103.018,123.18 177.474,123.265 	"/>
	<path d="M441.23,85.983c-7.938-13.677-49.455-29.437-71.007-29.437c-21.522,0-55.523,0-55.523,0s-17.827-32.273-59.743-32.273
		c-41.947,0-39.127,18.696-39.127,34.66v64.542l-19.009,20.067H109.03c0,0-24.732,16.357-24.732,51.716
		c0,14.601,1.876,44.177,9.258,74.675h75.671v71.398h71.399v20.646c24.745-9.09,30.42-25.62,30.42-28.62
		c0-20.521,0.52-51.608,0.52-51.608s25.529,48.77,64.078,48.77c38.548,0,60.965,22.146,60.965,44.952c0,22.823,0,42.196,0,42.196
		s-1.435,26.413-24.093,26.413c-22.688,0-48.377,0-48.377,0s-15.879-12.367-15.879-29.467c0-17.104,7.765-21.748,16.826-21.748
		c9.061,0,16.507,1.053,16.507,1.053v-35.976c0,0-73.009-0.472-73.009,55.433c0,55.891,38.179,70.25,68.793,70.25
		c30.582,0,49.871,0,49.871,0s90.048-11.58,90.048-189.486C477.296,116.222,449.175,99.674,441.23,85.983z M351.682,245.458
		c0,0,4.386-29.337,21.393-29.337c17.016,0,40.383,39.177,40.383,39.177S360.155,245.458,351.682,245.458z"/>
</g>
<g id="XMLID_1_">
	<g>
		<polygon points="219.051,362.909 219.051,398.58 147.646,398.58 147.646,469.975 111.975,469.975 111.975,398.58 40.58,398.58 
			40.58,362.909 111.975,362.909 111.975,291.514 147.646,291.514 147.646,362.909 		"/>
	</g>
	<g>
	</g>
</g>
</svg>
